<?xml version="1.0" encoding="utf-8"?>
<!-- Generator: Adobe Illustrator 22.1.0, SVG Export Plug-In . SVG Version: 6.00 Build 0)  -->
<svg version="1.1" id="Ebene_1" xmlns="http://www.w3.org/2000/svg" xmlns:xlink="http://www.w3.org/1999/xlink" x="0px" y="0px"
	 viewBox="0 0 100 100" style="enable-background:new 0 0 100 100;" xml:space="preserve">
<style type="text/css">
	.st0{opacity:0.3;}
	.st1{fill:#F44336;}
	.st2{fill:#FFFFFF;}
</style>
<g>
	<g class="st0">
		<circle class="st1" cx="50" cy="50" r="47.5"/>
		<path class="st2" d="M50,5.5c24.6,0,44.5,19.9,44.5,44.5c0,24.6-19.9,44.5-44.5,44.5C25.4,94.5,5.5,74.6,5.5,50
			C5.5,25.4,25.4,5.5,50,5.5 M50-0.5C22.2-0.5-0.5,22.2-0.5,50s22.7,50.5,50.5,50.5s50.5-22.7,50.5-50.5S77.8-0.5,50-0.5L50-0.5z"/>
	</g>
	<g>
		<circle class="st1" cx="50" cy="50" r="23.5"/>
		<path class="st2" d="M50,29.5c11.3,0,20.5,9.2,20.5,20.5S61.3,70.5,50,70.5S29.5,61.3,29.5,50S38.7,29.5,50,29.5 M50,23.5
			c-14.6,0-26.5,11.9-26.5,26.5S35.4,76.5,50,76.5S76.5,64.6,76.5,50S64.6,23.5,50,23.5L50,23.5z"/>
	</g>
</g>
</svg>
