<?xml version="1.0" encoding="utf-8"?>
<!-- Generator: Adobe Illustrator 22.1.0, SVG Export Plug-In . SVG Version: 6.00 Build 0)  -->
<svg version="1.1" id="OBJECTS" xmlns="http://www.w3.org/2000/svg" xmlns:xlink="http://www.w3.org/1999/xlink" x="0px" y="0px"
	 viewBox="0 0 227 219" style="enable-background:new 0 0 227 219;" xml:space="preserve">
<style type="text/css">
	.st0{opacity:0.2;}
	.st1{fill:#FFFFFF;}
	.st2{fill:#DB3555;}
	.st3{fill:#B52346;}
	.st4{fill:#6D4C41;}
	.st5{clip-path:url(#SVGID_2_);}
	.st6{fill:#51352D;}
	.st7{clip-path:url(#SVGID_4_);}
</style>
<g id="XMLID_59_">
	<path id="XMLID_75_" class="st0" d="M151.6,196.2c0,5.7-16.4,10.3-36.5,10.3s-36.5-4.6-36.5-10.3c0-5.7,16.4-10.3,36.5-10.3
		S151.6,190.6,151.6,196.2z"/>
	<g id="XMLID_60_">
		
			<ellipse id="XMLID_74_" transform="matrix(0.1586 -0.9873 0.9873 0.1586 10.2025 189.177)" class="st1" cx="116.1" cy="88.6" rx="45" ry="45"/>
		<g id="XMLID_61_">
			<path id="XMLID_70_" class="st2" d="M168.4,36.9c-14.7-14.7-33.9-22-53.1-22h0c-19.2,0-38.5,7.3-53.1,22
				c-29.3,29.3-29.3,76.9,0,106.2l53.1,53.1l0,0l53.1-53.1c14.7-14.7,22-33.9,22-53.1C190.4,70.8,183.1,51.6,168.4,36.9z
				 M115.3,129.4c-0.2,0-0.4,0-0.6,0c-22.1,0-40-17.9-40-40c0-22.1,17.9-40,40-40c0.2,0,0.4,0,0.6,0c21.8,0.3,39.4,18.1,39.4,40
				S137.1,129.1,115.3,129.4z"/>
			<path id="XMLID_69_" class="st3" d="M190.4,90c0,19.2-7.3,38.4-22,53.1l-53.1,53.1v-66.8c21.8-0.3,39.4-18.1,39.4-40
				s-17.6-39.7-39.4-40V14.9c19.2,0,38.4,7.3,53.1,22C183.1,51.6,190.4,70.8,190.4,90z"/>
			<path id="XMLID_62_" class="st3" d="M114.7,36.5c-29.2,0-53,23.7-53,52.9s23.7,52.9,53,52.9s52.9-23.7,52.9-52.9
				S143.9,36.5,114.7,36.5z M114.7,129.4c-22.1,0-40-17.9-40-40c0-22.1,17.9-40,40-40c22.1,0,40,17.9,40,40
				C154.7,111.5,136.8,129.4,114.7,129.4z"/>
		</g>
	</g>
</g>
<circle class="st1" cx="115.3" cy="88.5" r="53.8"/>
<g>
	<g>
		<g>
			<path class="st4" d="M77.5,105.5c0,15.6,19.2,20,38.1,20c16.2,0,37.5-4.4,37.5-20c0-19.6-16.6-10.9-38-10.9
				C92.8,94.6,77.5,85.9,77.5,105.5z"/>
			<g>
				<path class="st4" d="M115.6,74.5c-12.8,0-31.5,1.4-31.5,15.5c0,20.7,62.4,20.7,62.4,0C146.5,75.8,127.7,74.5,115.6,74.5
					L115.6,74.5z"/>
				<path class="st4" d="M138,71.9c2.5-8.2-4.6-18.1-14.4-20c-1.8-0.4-1.8,0.6-1.1,3c4.7,15.4-22.6,2.3-28.5,15
					C86,87,129.9,98.2,138,71.9z"/>
			</g>
		</g>
	</g>
	<g>
		<defs>
			<path id="SVGID_1_" d="M77.5,105.5c0,15.6,19.2,20,38.1,20c16.2,0,37.5-4.4,37.5-20c0-19.6-16.6-10.9-38-10.9
				C92.8,94.6,77.5,85.9,77.5,105.5z"/>
		</defs>
		<clipPath id="SVGID_2_">
			<use xlink:href="#SVGID_1_"  style="overflow:visible;"/>
		</clipPath>
		<g class="st5">
			<path class="st4" d="M115.6,74.5c-12.8,0-31.5,1.4-31.5,15.5c0,20.7,62.4,20.7,62.4,0C146.5,75.8,127.7,74.5,115.6,74.5
				L115.6,74.5z"/>
			<path class="st6" d="M115.7,74.5c12,0,30.9,1.4,30.9,15.5c0,10.3-15.6,15.5-31.2,15.5S84.1,100.3,84.1,90
				C84.1,75.8,102.9,74.5,115.7,74.5L115.7,74.5 M115.7,72.7L115.7,72.7c-4.1,0-7.5,0.1-10.6,0.4c-4.2,0.4-7.7,1.1-10.8,2.1
				c-3.7,1.3-6.7,3-8.7,5.2C83.2,83,82,86.2,82,90c0,2.9,1,5.5,3.1,7.9c1.8,2.1,4.5,3.9,7.8,5.4c3,1.3,6.6,2.4,10.5,3.1
				c3.8,0.7,7.8,1,11.9,1c4.1,0,8.1-0.3,11.9-1c4-0.7,7.5-1.7,10.5-3.1c3.3-1.5,5.9-3.3,7.8-5.4c2.1-2.3,3.1-5,3.1-7.9
				c0-3.7-1.2-6.9-3.6-9.5c-2-2.2-4.9-4-8.7-5.2C129.6,72.9,121.3,72.7,115.7,72.7L115.7,72.7z"/>
		</g>
	</g>
	<g>
		<defs>
			<path id="SVGID_3_" d="M115.6,74.5c-12.8,0-31.5,1.4-31.5,15.5c0,20.7,62.4,20.7,62.4,0C146.5,75.8,127.7,74.5,115.6,74.5
				L115.6,74.5z"/>
		</defs>
		<clipPath id="SVGID_4_">
			<use xlink:href="#SVGID_3_"  style="overflow:visible;"/>
		</clipPath>
		<g class="st7">
			<path class="st4" d="M138,71.9c2.5-8.2-4.6-18.1-14.4-20c-1.8-0.4-1.8,0.6-1.1,3c4.7,15.4-22.6,2.3-28.5,15
				C86,87,129.9,98.2,138,71.9z"/>
			<path class="st6" d="M122.9,51.8c0.2,0,0.4,0,0.6,0.1c9.8,2,16.9,11.9,14.4,20c-3.4,11.3-13.4,15.6-23.1,15.6
				c-13,0-25.5-7.9-20.9-17.7c5.9-12.7,33.2,0.4,28.5-15C121.8,52.8,121.7,51.8,122.9,51.8 M122.9,50c-1.3,0-2.1,0.6-2.4,1
				c-1,1.1-0.6,2.7-0.1,4.4c0.7,2.2,0.6,3.7-0.1,4.5c-0.5,0.6-1.5,1-3.1,1.3c-1.8,0.3-4,0.4-6.3,0.4c-3.4,0.1-7.2,0.2-10.6,1.1
				c-1.9,0.5-3.5,1.3-4.9,2.2c-1.5,1.1-2.7,2.5-3.5,4.2c-0.9,2.1-1.3,4.1-1,6.1c0.3,1.9,1.1,3.7,2.4,5.4c2,2.6,5.2,4.8,9.1,6.3
				c3.8,1.5,8.1,2.3,12.4,2.3c5.6,0,10.9-1.4,15.1-3.9c2.4-1.4,4.4-3.2,6-5.3c1.8-2.2,3.1-4.8,4-7.7c0.7-2.2,0.8-4.5,0.3-6.9
				c-0.5-2.2-1.5-4.5-2.9-6.5c-1.5-2.1-3.4-4.1-5.6-5.6c-2.4-1.6-5-2.7-7.7-3.3C123.6,50,123.2,50,122.9,50L122.9,50z"/>
		</g>
	</g>
</g>
</svg>
